<mxfile host="app.diagrams.net" agent="Mozilla/5.0 (Windows NT 10.0; Win64; x64) AppleWebKit/537.36 (KHTML, like Gecko) Chrome/133.0.0.0 Safari/537.36" version="26.0.10">
  <diagram name="Page-1" id="gMDURtGcjiEhRYYe6EXc">
    <mxGraphModel dx="1687" dy="868" grid="1" gridSize="10" guides="1" tooltips="1" connect="1" arrows="1" fold="1" page="1" pageScale="1" pageWidth="1654" pageHeight="1169" math="0" shadow="0">
      <root>
        <mxCell id="0" />
        <mxCell id="1" parent="0" />
        <mxCell id="EQPAPD3XDq-ZFQBZLD4_-7" style="edgeStyle=orthogonalEdgeStyle;rounded=0;orthogonalLoop=1;jettySize=auto;html=1;" edge="1" parent="1" source="EQPAPD3XDq-ZFQBZLD4_-1" target="EQPAPD3XDq-ZFQBZLD4_-6">
          <mxGeometry relative="1" as="geometry" />
        </mxCell>
        <mxCell id="EQPAPD3XDq-ZFQBZLD4_-1" value="Start" style="ellipse;whiteSpace=wrap;html=1;" vertex="1" parent="1">
          <mxGeometry x="570" y="40" width="120" height="80" as="geometry" />
        </mxCell>
        <mxCell id="EQPAPD3XDq-ZFQBZLD4_-14" style="edgeStyle=orthogonalEdgeStyle;rounded=0;orthogonalLoop=1;jettySize=auto;html=1;" edge="1" parent="1" source="EQPAPD3XDq-ZFQBZLD4_-3" target="EQPAPD3XDq-ZFQBZLD4_-13">
          <mxGeometry relative="1" as="geometry" />
        </mxCell>
        <mxCell id="EQPAPD3XDq-ZFQBZLD4_-3" value="Upload Sound" style="shape=parallelogram;perimeter=parallelogramPerimeter;whiteSpace=wrap;html=1;fixedSize=1;" vertex="1" parent="1">
          <mxGeometry x="400" y="280" width="120" height="60" as="geometry" />
        </mxCell>
        <mxCell id="EQPAPD3XDq-ZFQBZLD4_-15" style="edgeStyle=orthogonalEdgeStyle;rounded=0;orthogonalLoop=1;jettySize=auto;html=1;" edge="1" parent="1" source="EQPAPD3XDq-ZFQBZLD4_-5" target="EQPAPD3XDq-ZFQBZLD4_-13">
          <mxGeometry relative="1" as="geometry" />
        </mxCell>
        <mxCell id="EQPAPD3XDq-ZFQBZLD4_-5" value="Record" style="rounded=0;whiteSpace=wrap;html=1;" vertex="1" parent="1">
          <mxGeometry x="760" y="280" width="120" height="60" as="geometry" />
        </mxCell>
        <mxCell id="EQPAPD3XDq-ZFQBZLD4_-8" style="edgeStyle=orthogonalEdgeStyle;rounded=0;orthogonalLoop=1;jettySize=auto;html=1;" edge="1" parent="1" source="EQPAPD3XDq-ZFQBZLD4_-6" target="EQPAPD3XDq-ZFQBZLD4_-3">
          <mxGeometry relative="1" as="geometry" />
        </mxCell>
        <mxCell id="EQPAPD3XDq-ZFQBZLD4_-10" value="Yes" style="edgeLabel;html=1;align=center;verticalAlign=middle;resizable=0;points=[];" vertex="1" connectable="0" parent="EQPAPD3XDq-ZFQBZLD4_-8">
          <mxGeometry x="-0.4095" y="-2" relative="1" as="geometry">
            <mxPoint as="offset" />
          </mxGeometry>
        </mxCell>
        <mxCell id="EQPAPD3XDq-ZFQBZLD4_-9" style="edgeStyle=orthogonalEdgeStyle;rounded=0;orthogonalLoop=1;jettySize=auto;html=1;" edge="1" parent="1" source="EQPAPD3XDq-ZFQBZLD4_-6" target="EQPAPD3XDq-ZFQBZLD4_-5">
          <mxGeometry relative="1" as="geometry" />
        </mxCell>
        <mxCell id="EQPAPD3XDq-ZFQBZLD4_-11" value="No" style="edgeLabel;html=1;align=center;verticalAlign=middle;resizable=0;points=[];" vertex="1" connectable="0" parent="EQPAPD3XDq-ZFQBZLD4_-9">
          <mxGeometry x="-0.4957" relative="1" as="geometry">
            <mxPoint as="offset" />
          </mxGeometry>
        </mxCell>
        <mxCell id="EQPAPD3XDq-ZFQBZLD4_-6" value="Upload?" style="rhombus;whiteSpace=wrap;html=1;" vertex="1" parent="1">
          <mxGeometry x="590" y="160" width="80" height="80" as="geometry" />
        </mxCell>
        <mxCell id="EQPAPD3XDq-ZFQBZLD4_-19" style="edgeStyle=orthogonalEdgeStyle;rounded=0;orthogonalLoop=1;jettySize=auto;html=1;" edge="1" parent="1" source="EQPAPD3XDq-ZFQBZLD4_-12" target="EQPAPD3XDq-ZFQBZLD4_-17">
          <mxGeometry relative="1" as="geometry" />
        </mxCell>
        <mxCell id="EQPAPD3XDq-ZFQBZLD4_-12" value="Compute?" style="rhombus;whiteSpace=wrap;html=1;" vertex="1" parent="1">
          <mxGeometry x="590" y="460" width="80" height="80" as="geometry" />
        </mxCell>
        <mxCell id="EQPAPD3XDq-ZFQBZLD4_-16" style="edgeStyle=orthogonalEdgeStyle;rounded=0;orthogonalLoop=1;jettySize=auto;html=1;" edge="1" parent="1" source="EQPAPD3XDq-ZFQBZLD4_-13" target="EQPAPD3XDq-ZFQBZLD4_-12">
          <mxGeometry relative="1" as="geometry" />
        </mxCell>
        <mxCell id="EQPAPD3XDq-ZFQBZLD4_-13" value="Show sound Description" style="rounded=0;whiteSpace=wrap;html=1;" vertex="1" parent="1">
          <mxGeometry x="570" y="370" width="120" height="60" as="geometry" />
        </mxCell>
        <mxCell id="EQPAPD3XDq-ZFQBZLD4_-20" style="edgeStyle=orthogonalEdgeStyle;rounded=0;orthogonalLoop=1;jettySize=auto;html=1;" edge="1" parent="1" source="EQPAPD3XDq-ZFQBZLD4_-17" target="EQPAPD3XDq-ZFQBZLD4_-18">
          <mxGeometry relative="1" as="geometry" />
        </mxCell>
        <mxCell id="EQPAPD3XDq-ZFQBZLD4_-17" value="Analyze Sound with&amp;nbsp;&lt;br&gt;Audio Classification Model" style="rounded=0;whiteSpace=wrap;html=1;" vertex="1" parent="1">
          <mxGeometry x="570" y="570" width="120" height="60" as="geometry" />
        </mxCell>
        <mxCell id="EQPAPD3XDq-ZFQBZLD4_-22" style="edgeStyle=orthogonalEdgeStyle;rounded=0;orthogonalLoop=1;jettySize=auto;html=1;" edge="1" parent="1" source="EQPAPD3XDq-ZFQBZLD4_-18" target="EQPAPD3XDq-ZFQBZLD4_-21">
          <mxGeometry relative="1" as="geometry" />
        </mxCell>
        <mxCell id="EQPAPD3XDq-ZFQBZLD4_-18" value="Show Result" style="rounded=0;whiteSpace=wrap;html=1;" vertex="1" parent="1">
          <mxGeometry x="570" y="660" width="120" height="60" as="geometry" />
        </mxCell>
        <mxCell id="EQPAPD3XDq-ZFQBZLD4_-21" value="End" style="ellipse;whiteSpace=wrap;html=1;" vertex="1" parent="1">
          <mxGeometry x="570" y="750" width="120" height="80" as="geometry" />
        </mxCell>
      </root>
    </mxGraphModel>
  </diagram>
</mxfile>
